<svg width="21" height="21" fill="none" xmlns="http://www.w3.org/2000/svg"><path d="M9.922 15.18a4.92 4.92 0 01-.672-.048 5.473 5.473 0 01-.648-.108c-.2-.04-.384-.084-.552-.132a2.478 2.478 0 01-.384-.156l.288-1.236c.168.08.412.172.732.276.32.096.716.144 1.188.144.632 0 1.088-.12 1.368-.36.28-.248.42-.576.42-.984 0-.264-.056-.484-.168-.66a1.125 1.125 0 00-.444-.42 1.778 1.778 0 00-.648-.228 3.912 3.912 0 00-.768-.072h-.492V10.02h.6c.184 0 .368-.016.552-.048.192-.04.364-.104.516-.192a1.18 1.18 0 00.372-.372c.096-.152.144-.348.144-.588a1.04 1.04 0 00-.108-.492.977.977 0 00-.288-.336 1.075 1.075 0 00-.396-.192 1.879 1.879 0 00-.48-.06c-.36 0-.68.056-.96.168-.28.104-.528.224-.744.36l-.528-1.08a4.41 4.41 0 01.408-.228c.16-.08.336-.156.528-.228.2-.072.412-.128.636-.168.224-.048.46-.072.708-.072.464 0 .864.056 1.2.168.336.112.612.272.828.48.224.2.388.44.492.72.112.272.168.572.168.9 0 .384-.108.728-.324 1.032-.208.304-.48.536-.816.696a2.32 2.32 0 011.068.756c.288.352.432.804.432 1.356 0 .368-.064.712-.192 1.032a2.176 2.176 0 01-.588.816c-.264.224-.6.404-1.008.54-.4.128-.88.192-1.44.192z" fill="#0378FF"/><circle cx="10.5" cy="10.5" r="10" stroke="#0378FF"/></svg>