<svg width="21" height="21" viewBox="0 0 21 21" fill="none" xmlns="http://www.w3.org/2000/svg">
<path d="M12.8618 8.844C12.8618 9.132 12.8018 9.416 12.6818 9.696C12.5618 9.968 12.4058 10.236 12.2138 10.5C12.0298 10.756 11.8178 11.008 11.5778 11.256C11.3378 11.496 11.0978 11.732 10.8578 11.964C10.7298 12.084 10.5858 12.228 10.4258 12.396C10.2658 12.564 10.1138 12.732 9.96984 12.9C9.82584 13.068 9.70184 13.232 9.59784 13.392C9.49384 13.544 9.43784 13.672 9.42984 13.776H13.1258V15H7.83384C7.82584 14.936 7.82184 14.86 7.82184 14.772C7.82184 14.676 7.82184 14.604 7.82184 14.556C7.82184 14.172 7.88184 13.82 8.00184 13.5C8.12984 13.172 8.29384 12.868 8.49384 12.588C8.69384 12.308 8.91784 12.044 9.16584 11.796C9.41384 11.548 9.66184 11.304 9.90984 11.064C10.1018 10.88 10.2858 10.7 10.4618 10.524C10.6378 10.348 10.7898 10.176 10.9178 10.008C11.0538 9.832 11.1618 9.656 11.2418 9.48C11.3218 9.296 11.3618 9.108 11.3618 8.916C11.3618 8.5 11.2418 8.204 11.0018 8.028C10.7618 7.852 10.4698 7.764 10.1258 7.764C9.90184 7.764 9.69384 7.796 9.50184 7.86C9.30984 7.924 9.13784 8 8.98584 8.088C8.84184 8.176 8.71384 8.268 8.60184 8.364C8.48984 8.452 8.40584 8.524 8.34984 8.58L7.62984 7.56C7.96584 7.24 8.35784 6.984 8.80584 6.792C9.26184 6.592 9.74984 6.492 10.2698 6.492C11.1578 6.492 11.8098 6.704 12.2258 7.128C12.6498 7.544 12.8618 8.116 12.8618 8.844Z" fill="#0378FF"/>
<circle cx="10.5" cy="10.5" r="10" stroke="#0378FF"/>
</svg>
