<svg width="21" height="21" viewBox="0 0 21 21" fill="none" xmlns="http://www.w3.org/2000/svg">
<path d="M9.92184 15.18C9.70584 15.18 9.48184 15.164 9.24984 15.132C9.02584 15.108 8.80984 15.072 8.60184 15.024C8.40184 14.984 8.21784 14.94 8.04984 14.892C7.88184 14.836 7.75384 14.784 7.66584 14.736L7.95384 13.5C8.12184 13.58 8.36584 13.672 8.68584 13.776C9.00584 13.872 9.40184 13.92 9.87384 13.92C10.5058 13.92 10.9618 13.8 11.2418 13.56C11.5218 13.312 11.6618 12.984 11.6618 12.576C11.6618 12.312 11.6058 12.092 11.4938 11.916C11.3898 11.74 11.2418 11.6 11.0498 11.496C10.8658 11.384 10.6498 11.308 10.4018 11.268C10.1618 11.22 9.90584 11.196 9.63384 11.196H9.14184V10.02H9.74184C9.92584 10.02 10.1098 10.004 10.2938 9.972C10.4858 9.932 10.6578 9.868 10.8098 9.78C10.9618 9.684 11.0858 9.56 11.1818 9.408C11.2778 9.256 11.3258 9.06 11.3258 8.82C11.3258 8.628 11.2898 8.464 11.2178 8.328C11.1458 8.192 11.0498 8.08 10.9298 7.992C10.8178 7.904 10.6858 7.84 10.5338 7.8C10.3818 7.76 10.2218 7.74 10.0538 7.74C9.69384 7.74 9.37384 7.796 9.09384 7.908C8.81384 8.012 8.56584 8.132 8.34984 8.268L7.82184 7.188C7.93384 7.116 8.06984 7.04 8.22984 6.96C8.38984 6.88 8.56584 6.804 8.75784 6.732C8.95784 6.66 9.16984 6.604 9.39384 6.564C9.61784 6.516 9.85384 6.492 10.1018 6.492C10.5658 6.492 10.9658 6.548 11.3018 6.66C11.6378 6.772 11.9138 6.932 12.1298 7.14C12.3538 7.34 12.5178 7.58 12.6218 7.86C12.7338 8.132 12.7898 8.432 12.7898 8.76C12.7898 9.144 12.6818 9.488 12.4658 9.792C12.2578 10.096 11.9858 10.328 11.6498 10.488C12.0818 10.64 12.4378 10.892 12.7178 11.244C13.0058 11.596 13.1498 12.048 13.1498 12.6C13.1498 12.968 13.0858 13.312 12.9578 13.632C12.8298 13.944 12.6338 14.216 12.3698 14.448C12.1058 14.672 11.7698 14.852 11.3618 14.988C10.9618 15.116 10.4818 15.18 9.92184 15.18Z" fill="#0378FF"/>
<circle cx="10.5" cy="10.5" r="10" stroke="#0378FF"/>
</svg>
