<svg width="46" height="46" viewBox="0 0 46 46" fill="none" xmlns="http://www.w3.org/2000/svg">
<circle cx="23" cy="23" r="22" stroke="#03E69F" stroke-width="2"/>
<path d="M25.29 16.71C25.1973 16.8025 25.1237 16.9124 25.0736 17.0334C25.0234 17.1543 24.9976 17.284 24.9976 17.415C24.9976 17.546 25.0234 17.6756 25.0736 17.7966C25.1237 17.9176 25.1973 18.0275 25.29 18.12L29.17 22H14C13.45 22 13 22.45 13 23C13 23.55 13.45 24 14 24H29.18L25.3 27.88C25.2074 27.9726 25.134 28.0825 25.0839 28.2034C25.0338 28.3244 25.008 28.4541 25.008 28.585C25.008 28.7159 25.0338 28.8456 25.0839 28.9665C25.134 29.0875 25.2074 29.1974 25.3 29.29C25.3926 29.3826 25.5025 29.456 25.6235 29.5061C25.7444 29.5562 25.8741 29.582 26.005 29.582C26.1359 29.582 26.2656 29.5562 26.3865 29.5061C26.5075 29.456 26.6174 29.3826 26.71 29.29L32.3 23.7C32.3927 23.6075 32.4663 23.4976 32.5164 23.3766C32.5666 23.2556 32.5924 23.126 32.5924 22.995C32.5924 22.864 32.5666 22.7343 32.5164 22.6134C32.4663 22.4924 32.3927 22.3825 32.3 22.29L26.7 16.71C26.6075 16.6173 26.4976 16.5437 26.3766 16.4936C26.2557 16.4434 26.126 16.4175 25.995 16.4175C25.864 16.4175 25.7343 16.4434 25.6134 16.4936C25.4924 16.5437 25.3825 16.6173 25.29 16.71V16.71Z" fill="#03E69F"/>
</svg>
